# xmcd CD database file
#
# Track frame offsets:
#	150
#	17767
#	32745
#	50002
#	63507
#	82035
#	98380
#	107467
#	120645
#	135375
#	148320
#
# Disc length: 2201 seconds
#
# Revision: 6
# Processed by: cddbd v1.5.2PL0 Copyright (c) Steve Scherf et al.
# Submitted via: CDex 1.86
#
DISCID=9008970b
DTITLE=BR549 - This Is BR549
DYEAR=2001
DGENRE=Country
TTITLE0=Too Lazy To Work, Too Nervous To Steal
TTITLE1=The Price Of Love
TTITLE2=The Game
TTITLE3=Psychic Lady
TTITLE4=Play That Fast Thing (One More Time)
TTITLE5=A Little Good News
TTITLE6=While You Were Gone
TTITLE7=Look Me Up
TTITLE8=Let's See How Far You Get
TTITLE9=Fool Of The Century
TTITLE10=Different Drum
EXTD=YEAR: 2001
EXTT0=
EXTT1=
EXTT2=
EXTT3=
EXTT4=
EXTT5=
EXTT6=
EXTT7=
EXTT8=
EXTT9=
EXTT10=
PLAYORDER=
